<svg id="visual" viewBox="0 0 960 300" width="960" height="300" xmlns="http://www.w3.org/2000/svg" xmlns:xlink="http://www.w3.org/1999/xlink" version="1.1"><rect x="0" y="0" width="960" height="300" fill="#3b5827"></rect><path d="M0 176L8.8 178.2C17.7 180.3 35.3 184.7 53.2 182.2C71 179.7 89 170.3 106.8 167.2C124.7 164 142.3 167 160 165.5C177.7 164 195.3 158 213.2 158.7C231 159.3 249 166.7 266.8 174C284.7 181.3 302.3 188.7 320 187C337.7 185.3 355.3 174.7 373.2 167.3C391 160 409 156 426.8 159.7C444.7 163.3 462.3 174.7 480 182.2C497.7 189.7 515.3 193.3 533.2 188C551 182.7 569 168.3 586.8 165.8C604.7 163.3 622.3 172.7 640 172.8C657.7 173 675.3 164 693.2 163.5C711 163 729 171 746.8 173.7C764.7 176.3 782.3 173.7 800 169.8C817.7 166 835.3 161 853.2 158.5C871 156 889 156 906.8 155.2C924.7 154.3 942.3 152.7 951.2 151.8L960 151L960 301L951.2 301C942.3 301 924.7 301 906.8 301C889 301 871 301 853.2 301C835.3 301 817.7 301 800 301C782.3 301 764.7 301 746.8 301C729 301 711 301 693.2 301C675.3 301 657.7 301 640 301C622.3 301 604.7 301 586.8 301C569 301 551 301 533.2 301C515.3 301 497.7 301 480 301C462.3 301 444.7 301 426.8 301C409 301 391 301 373.2 301C355.3 301 337.7 301 320 301C302.3 301 284.7 301 266.8 301C249 301 231 301 213.2 301C195.3 301 177.7 301 160 301C142.3 301 124.7 301 106.8 301C89 301 71 301 53.2 301C35.3 301 17.7 301 8.8 301L0 301Z" fill="#83b860"></path><path d="M0 207L8.8 200.2C17.7 193.3 35.3 179.7 53.2 177.7C71 175.7 89 185.3 106.8 187.5C124.7 189.7 142.3 184.3 160 182.8C177.7 181.3 195.3 183.7 213.2 187.2C231 190.7 249 195.3 266.8 194.7C284.7 194 302.3 188 320 182.3C337.7 176.7 355.3 171.3 373.2 171.2C391 171 409 176 426.8 180.7C444.7 185.3 462.3 189.7 480 192.3C497.7 195 515.3 196 533.2 196.3C551 196.7 569 196.3 586.8 193.5C604.7 190.7 622.3 185.3 640 181.3C657.7 177.3 675.3 174.7 693.2 174.5C711 174.3 729 176.7 746.8 175.7C764.7 174.7 782.3 170.3 800 175C817.7 179.7 835.3 193.3 853.2 199.2C871 205 889 203 906.8 199.7C924.7 196.3 942.3 191.7 951.2 189.3L960 187L960 301L951.2 301C942.3 301 924.7 301 906.8 301C889 301 871 301 853.2 301C835.3 301 817.7 301 800 301C782.3 301 764.7 301 746.8 301C729 301 711 301 693.2 301C675.3 301 657.7 301 640 301C622.3 301 604.7 301 586.8 301C569 301 551 301 533.2 301C515.3 301 497.7 301 480 301C462.3 301 444.7 301 426.8 301C409 301 391 301 373.2 301C355.3 301 337.7 301 320 301C302.3 301 284.7 301 266.8 301C249 301 231 301 213.2 301C195.3 301 177.7 301 160 301C142.3 301 124.7 301 106.8 301C89 301 71 301 53.2 301C35.3 301 17.7 301 8.8 301L0 301Z" fill="#93c174"></path><path d="M0 213L8.8 209C17.7 205 35.3 197 53.2 195.5C71 194 89 199 106.8 198.8C124.7 198.7 142.3 193.3 160 193.3C177.7 193.3 195.3 198.7 213.2 199.3C231 200 249 196 266.8 196.5C284.7 197 302.3 202 320 201.2C337.7 200.3 355.3 193.7 373.2 193.2C391 192.7 409 198.3 426.8 203.8C444.7 209.3 462.3 214.7 480 214.5C497.7 214.3 515.3 208.7 533.2 208.5C551 208.3 569 213.7 586.8 216C604.7 218.3 622.3 217.7 640 216.8C657.7 216 675.3 215 693.2 214.2C711 213.3 729 212.7 746.8 213.3C764.7 214 782.3 216 800 211.7C817.7 207.3 835.3 196.7 853.2 197.7C871 198.7 889 211.3 906.8 210.8C924.7 210.3 942.3 196.7 951.2 189.8L960 183L960 301L951.2 301C942.3 301 924.7 301 906.8 301C889 301 871 301 853.2 301C835.3 301 817.7 301 800 301C782.3 301 764.7 301 746.8 301C729 301 711 301 693.2 301C675.3 301 657.7 301 640 301C622.3 301 604.7 301 586.8 301C569 301 551 301 533.2 301C515.3 301 497.7 301 480 301C462.3 301 444.7 301 426.8 301C409 301 391 301 373.2 301C355.3 301 337.7 301 320 301C302.3 301 284.7 301 266.8 301C249 301 231 301 213.2 301C195.3 301 177.7 301 160 301C142.3 301 124.7 301 106.8 301C89 301 71 301 53.2 301C35.3 301 17.7 301 8.8 301L0 301Z" fill="#a3ca88"></path><path d="M0 216L8.8 213.2C17.7 210.3 35.3 204.7 53.2 206.2C71 207.7 89 216.3 106.8 220.7C124.7 225 142.3 225 160 224.2C177.7 223.3 195.3 221.7 213.2 221.7C231 221.7 249 223.3 266.8 222.8C284.7 222.3 302.3 219.7 320 219.8C337.7 220 355.3 223 373.2 225.3C391 227.7 409 229.3 426.8 227.2C444.7 225 462.3 219 480 218.5C497.7 218 515.3 223 533.2 221.8C551 220.7 569 213.3 586.8 209.3C604.7 205.3 622.3 204.7 640 206.8C657.7 209 675.3 214 693.2 215.7C711 217.3 729 215.7 746.8 218.5C764.7 221.3 782.3 228.7 800 228.2C817.7 227.7 835.3 219.3 853.2 215C871 210.7 889 210.3 906.8 210.3C924.7 210.3 942.3 210.7 951.2 210.8L960 211L960 301L951.2 301C942.3 301 924.7 301 906.8 301C889 301 871 301 853.2 301C835.3 301 817.7 301 800 301C782.3 301 764.7 301 746.8 301C729 301 711 301 693.2 301C675.3 301 657.7 301 640 301C622.3 301 604.7 301 586.8 301C569 301 551 301 533.2 301C515.3 301 497.7 301 480 301C462.3 301 444.7 301 426.8 301C409 301 391 301 373.2 301C355.3 301 337.7 301 320 301C302.3 301 284.7 301 266.8 301C249 301 231 301 213.2 301C195.3 301 177.7 301 160 301C142.3 301 124.7 301 106.8 301C89 301 71 301 53.2 301C35.3 301 17.7 301 8.8 301L0 301Z" fill="#b2d39c"></path><path d="M0 247L8.8 246.5C17.7 246 35.3 245 53.2 243.8C71 242.7 89 241.3 106.8 240.7C124.7 240 142.3 240 160 240.8C177.7 241.7 195.3 243.3 213.2 240.8C231 238.3 249 231.7 266.8 231.7C284.7 231.7 302.3 238.3 320 239.7C337.7 241 355.3 237 373.2 233C391 229 409 225 426.8 226.2C444.7 227.3 462.3 233.7 480 234.3C497.7 235 515.3 230 533.2 230.3C551 230.7 569 236.3 586.8 240C604.7 243.7 622.3 245.3 640 243.5C657.7 241.7 675.3 236.3 693.2 235C711 233.7 729 236.3 746.8 234.8C764.7 233.3 782.3 227.7 800 225.8C817.7 224 835.3 226 853.2 226C871 226 889 224 906.8 225.2C924.7 226.3 942.3 230.7 951.2 232.8L960 235L960 301L951.2 301C942.3 301 924.7 301 906.8 301C889 301 871 301 853.2 301C835.3 301 817.7 301 800 301C782.3 301 764.7 301 746.8 301C729 301 711 301 693.2 301C675.3 301 657.7 301 640 301C622.3 301 604.7 301 586.8 301C569 301 551 301 533.2 301C515.3 301 497.7 301 480 301C462.3 301 444.7 301 426.8 301C409 301 391 301 373.2 301C355.3 301 337.7 301 320 301C302.3 301 284.7 301 266.8 301C249 301 231 301 213.2 301C195.3 301 177.7 301 160 301C142.3 301 124.7 301 106.8 301C89 301 71 301 53.2 301C35.3 301 17.7 301 8.8 301L0 301Z" fill="#c2dcb0"></path><path d="M0 263L8.8 258.3C17.7 253.7 35.3 244.3 53.2 239.8C71 235.3 89 235.7 106.8 237.8C124.7 240 142.3 244 160 248.5C177.7 253 195.3 258 213.2 259.7C231 261.3 249 259.7 266.8 256.3C284.7 253 302.3 248 320 246.5C337.7 245 355.3 247 373.2 245.8C391 244.7 409 240.3 426.8 238.5C444.7 236.7 462.3 237.3 480 240.8C497.7 244.3 515.3 250.7 533.2 254.5C551 258.3 569 259.7 586.8 258.5C604.7 257.3 622.3 253.7 640 249.2C657.7 244.7 675.3 239.3 693.2 239.7C711 240 729 246 746.8 250.8C764.7 255.7 782.3 259.3 800 257.3C817.7 255.3 835.3 247.7 853.2 247.8C871 248 889 256 906.8 258.7C924.7 261.3 942.3 258.7 951.2 257.3L960 256L960 301L951.2 301C942.3 301 924.7 301 906.8 301C889 301 871 301 853.2 301C835.3 301 817.7 301 800 301C782.3 301 764.7 301 746.8 301C729 301 711 301 693.2 301C675.3 301 657.7 301 640 301C622.3 301 604.7 301 586.8 301C569 301 551 301 533.2 301C515.3 301 497.7 301 480 301C462.3 301 444.7 301 426.8 301C409 301 391 301 373.2 301C355.3 301 337.7 301 320 301C302.3 301 284.7 301 266.8 301C249 301 231 301 213.2 301C195.3 301 177.7 301 160 301C142.3 301 124.7 301 106.8 301C89 301 71 301 53.2 301C35.3 301 17.7 301 8.8 301L0 301Z" fill="#d1e5c4"></path><path d="M0 266L8.8 264.2C17.7 262.3 35.3 258.7 53.2 259.5C71 260.3 89 265.7 106.8 268.2C124.7 270.7 142.3 270.3 160 267.7C177.7 265 195.3 260 213.2 259.2C231 258.3 249 261.7 266.8 264C284.7 266.3 302.3 267.7 320 267.3C337.7 267 355.3 265 373.2 263.2C391 261.3 409 259.7 426.8 259.3C444.7 259 462.3 260 480 261.5C497.7 263 515.3 265 533.2 266.7C551 268.3 569 269.7 586.8 269C604.7 268.3 622.3 265.7 640 264.8C657.7 264 675.3 265 693.2 263.8C711 262.7 729 259.3 746.8 257.7C764.7 256 782.3 256 800 258.3C817.7 260.7 835.3 265.3 853.2 264.7C871 264 889 258 906.8 256.3C924.7 254.7 942.3 257.3 951.2 258.7L960 260L960 301L951.2 301C942.3 301 924.7 301 906.8 301C889 301 871 301 853.2 301C835.3 301 817.7 301 800 301C782.3 301 764.7 301 746.8 301C729 301 711 301 693.2 301C675.3 301 657.7 301 640 301C622.3 301 604.7 301 586.8 301C569 301 551 301 533.2 301C515.3 301 497.7 301 480 301C462.3 301 444.7 301 426.8 301C409 301 391 301 373.2 301C355.3 301 337.7 301 320 301C302.3 301 284.7 301 266.8 301C249 301 231 301 213.2 301C195.3 301 177.7 301 160 301C142.3 301 124.7 301 106.8 301C89 301 71 301 53.2 301C35.3 301 17.7 301 8.8 301L0 301Z" fill="#e1eed9"></path><path d="M0 282L8.8 281.8C17.7 281.7 35.3 281.3 53.2 279.5C71 277.7 89 274.3 106.8 273C124.7 271.7 142.3 272.3 160 274.5C177.7 276.7 195.3 280.3 213.2 279.7C231 279 249 274 266.8 271.8C284.7 269.7 302.3 270.3 320 273.3C337.7 276.3 355.3 281.7 373.2 283.8C391 286 409 285 426.8 285C444.7 285 462.3 286 480 284.5C497.7 283 515.3 279 533.2 278C551 277 569 279 586.8 279.5C604.7 280 622.3 279 640 279C657.7 279 675.3 280 693.2 280.2C711 280.3 729 279.7 746.8 278.8C764.7 278 782.3 277 800 276.8C817.7 276.7 835.3 277.3 853.2 279C871 280.7 889 283.3 906.8 283.8C924.7 284.3 942.3 282.7 951.2 281.8L960 281L960 301L951.2 301C942.3 301 924.7 301 906.8 301C889 301 871 301 853.2 301C835.3 301 817.7 301 800 301C782.3 301 764.7 301 746.8 301C729 301 711 301 693.2 301C675.3 301 657.7 301 640 301C622.3 301 604.7 301 586.8 301C569 301 551 301 533.2 301C515.3 301 497.7 301 480 301C462.3 301 444.7 301 426.8 301C409 301 391 301 373.2 301C355.3 301 337.7 301 320 301C302.3 301 284.7 301 266.8 301C249 301 231 301 213.2 301C195.3 301 177.7 301 160 301C142.3 301 124.7 301 106.8 301C89 301 71 301 53.2 301C35.3 301 17.7 301 8.8 301L0 301Z" fill="#f1f7ed"></path></svg>