<svg id="visual" viewBox="0 0 900 50" width="900" height="50" xmlns="http://www.w3.org/2000/svg" xmlns:xlink="http://www.w3.org/1999/xlink" version="1.1"><rect x="0" y="0" width="900" height="50" fill="#3b5827"></rect><path d="M0 26L10.7 26.2C21.3 26.3 42.7 26.7 64.2 26.5C85.7 26.3 107.3 25.7 128.8 25.8C150.3 26 171.7 27 193 26.8C214.3 26.7 235.7 25.3 257 23.8C278.3 22.3 299.7 20.7 321.2 21.2C342.7 21.7 364.3 24.3 385.8 25.3C407.3 26.3 428.7 25.7 450 24C471.3 22.3 492.7 19.7 514.2 18.5C535.7 17.3 557.3 17.7 578.8 18.8C600.3 20 621.7 22 643 21.8C664.3 21.7 685.7 19.3 707 18.3C728.3 17.3 749.7 17.7 771.2 18.2C792.7 18.7 814.3 19.3 835.8 19.3C857.3 19.3 878.7 18.7 889.3 18.3L900 18L900 0L889.3 0C878.7 0 857.3 0 835.8 0C814.3 0 792.7 0 771.2 0C749.7 0 728.3 0 707 0C685.7 0 664.3 0 643 0C621.7 0 600.3 0 578.8 0C557.3 0 535.7 0 514.2 0C492.7 0 471.3 0 450 0C428.7 0 407.3 0 385.8 0C364.3 0 342.7 0 321.2 0C299.7 0 278.3 0 257 0C235.7 0 214.3 0 193 0C171.7 0 150.3 0 128.8 0C107.3 0 85.7 0 64.2 0C42.7 0 21.3 0 10.7 0L0 0Z" fill="#83b860"></path><path d="M0 22L10.7 21C21.3 20 42.7 18 64.2 17C85.7 16 107.3 16 128.8 16.5C150.3 17 171.7 18 193 18.2C214.3 18.3 235.7 17.7 257 18.2C278.3 18.7 299.7 20.3 321.2 20.7C342.7 21 364.3 20 385.8 19.3C407.3 18.7 428.7 18.3 450 17.3C471.3 16.3 492.7 14.7 514.2 15C535.7 15.3 557.3 17.7 578.8 18.8C600.3 20 621.7 20 643 19C664.3 18 685.7 16 707 15.3C728.3 14.7 749.7 15.3 771.2 16.8C792.7 18.3 814.3 20.7 835.8 20.8C857.3 21 878.7 19 889.3 18L900 17L900 0L889.3 0C878.7 0 857.3 0 835.8 0C814.3 0 792.7 0 771.2 0C749.7 0 728.3 0 707 0C685.7 0 664.3 0 643 0C621.7 0 600.3 0 578.8 0C557.3 0 535.7 0 514.2 0C492.7 0 471.3 0 450 0C428.7 0 407.3 0 385.8 0C364.3 0 342.7 0 321.2 0C299.7 0 278.3 0 257 0C235.7 0 214.3 0 193 0C171.7 0 150.3 0 128.8 0C107.3 0 85.7 0 64.2 0C42.7 0 21.3 0 10.7 0L0 0Z" fill="#98c47b"></path><path d="M0 14L10.7 13.7C21.3 13.3 42.7 12.7 64.2 12.8C85.7 13 107.3 14 128.8 14.3C150.3 14.7 171.7 14.3 193 13.8C214.3 13.3 235.7 12.7 257 12.2C278.3 11.7 299.7 11.3 321.2 10.8C342.7 10.3 364.3 9.7 385.8 10.3C407.3 11 428.7 13 450 14C471.3 15 492.7 15 514.2 14.2C535.7 13.3 557.3 11.7 578.8 12.2C600.3 12.7 621.7 15.3 643 16C664.3 16.7 685.7 15.3 707 14.8C728.3 14.3 749.7 14.7 771.2 14.3C792.7 14 814.3 13 835.8 13.2C857.3 13.3 878.7 14.7 889.3 15.3L900 16L900 0L889.3 0C878.7 0 857.3 0 835.8 0C814.3 0 792.7 0 771.2 0C749.7 0 728.3 0 707 0C685.7 0 664.3 0 643 0C621.7 0 600.3 0 578.8 0C557.3 0 535.7 0 514.2 0C492.7 0 471.3 0 450 0C428.7 0 407.3 0 385.8 0C364.3 0 342.7 0 321.2 0C299.7 0 278.3 0 257 0C235.7 0 214.3 0 193 0C171.7 0 150.3 0 128.8 0C107.3 0 85.7 0 64.2 0C42.7 0 21.3 0 10.7 0L0 0Z" fill="#add095"></path><path d="M0 7L10.7 6.8C21.3 6.7 42.7 6.3 64.2 6.5C85.7 6.7 107.3 7.3 128.8 7.8C150.3 8.3 171.7 8.7 193 8.3C214.3 8 235.7 7 257 7.5C278.3 8 299.7 10 321.2 11C342.7 12 364.3 12 385.8 11.5C407.3 11 428.7 10 450 10C471.3 10 492.7 11 514.2 11.3C535.7 11.7 557.3 11.3 578.8 10.8C600.3 10.3 621.7 9.7 643 9.5C664.3 9.3 685.7 9.7 707 9.7C728.3 9.7 749.7 9.3 771.2 9.2C792.7 9 814.3 9 835.8 9.5C857.3 10 878.7 11 889.3 11.5L900 12L900 0L889.3 0C878.7 0 857.3 0 835.8 0C814.3 0 792.7 0 771.2 0C749.7 0 728.3 0 707 0C685.7 0 664.3 0 643 0C621.7 0 600.3 0 578.8 0C557.3 0 535.7 0 514.2 0C492.7 0 471.3 0 450 0C428.7 0 407.3 0 385.8 0C364.3 0 342.7 0 321.2 0C299.7 0 278.3 0 257 0C235.7 0 214.3 0 193 0C171.7 0 150.3 0 128.8 0C107.3 0 85.7 0 64.2 0C42.7 0 21.3 0 10.7 0L0 0Z" fill="#c2dcaf"></path><path d="M0 7L10.7 6.5C21.3 6 42.7 5 64.2 4.5C85.7 4 107.3 4 128.8 4.2C150.3 4.3 171.7 4.7 193 4.8C214.3 5 235.7 5 257 5C278.3 5 299.7 5 321.2 5.3C342.7 5.7 364.3 6.3 385.8 6.2C407.3 6 428.7 5 450 4.7C471.3 4.3 492.7 4.7 514.2 5.3C535.7 6 557.3 7 578.8 6.5C600.3 6 621.7 4 643 3.8C664.3 3.7 685.7 5.3 707 6.3C728.3 7.3 749.7 7.7 771.2 7.3C792.7 7 814.3 6 835.8 5C857.3 4 878.7 3 889.3 2.5L900 2L900 0L889.3 0C878.7 0 857.3 0 835.8 0C814.3 0 792.7 0 771.2 0C749.7 0 728.3 0 707 0C685.7 0 664.3 0 643 0C621.7 0 600.3 0 578.8 0C557.3 0 535.7 0 514.2 0C492.7 0 471.3 0 450 0C428.7 0 407.3 0 385.8 0C364.3 0 342.7 0 321.2 0C299.7 0 278.3 0 257 0C235.7 0 214.3 0 193 0C171.7 0 150.3 0 128.8 0C107.3 0 85.7 0 64.2 0C42.7 0 21.3 0 10.7 0L0 0Z" fill="#d6e7ca"></path></svg>