<svg id="visual" viewBox="0 0 1213 790" width="1213" height="790" xmlns="http://www.w3.org/2000/svg" xmlns:xlink="http://www.w3.org/1999/xlink" version="1.1"><rect x="0" y="0" width="1213" height="790" fill="#d6e7ca"></rect><path d="M0 57L10.7 56.3C21.3 55.7 42.7 54.3 64 51.7C85.3 49 106.7 45 128 42C149.3 39 170.7 37 191.8 36.3C213 35.7 234 36.3 255.2 40C276.3 43.7 297.7 50.3 319 51.5C340.3 52.7 361.7 48.3 383 45.7C404.3 43 425.7 42 447 43.8C468.3 45.7 489.7 50.3 511 53.3C532.3 56.3 553.7 57.7 574.8 57.8C596 58 617 57 638.2 56.3C659.3 55.7 680.7 55.3 702 52C723.3 48.7 744.7 42.3 766 42.3C787.3 42.3 808.7 48.7 830 52.8C851.3 57 872.7 59 894 60.2C915.3 61.3 936.7 61.7 957.8 60.3C979 59 1000 56 1021.2 53.8C1042.3 51.7 1063.7 50.3 1085 47.2C1106.3 44 1127.7 39 1149 36.7C1170.3 34.3 1191.7 34.7 1202.3 34.8L1213 35L1213 0L1202.3 0C1191.7 0 1170.3 0 1149 0C1127.7 0 1106.3 0 1085 0C1063.7 0 1042.3 0 1021.2 0C1000 0 979 0 957.8 0C936.7 0 915.3 0 894 0C872.7 0 851.3 0 830 0C808.7 0 787.3 0 766 0C744.7 0 723.3 0 702 0C680.7 0 659.3 0 638.2 0C617 0 596 0 574.8 0C553.7 0 532.3 0 511 0C489.7 0 468.3 0 447 0C425.7 0 404.3 0 383 0C361.7 0 340.3 0 319 0C297.7 0 276.3 0 255.2 0C234 0 213 0 191.8 0C170.7 0 149.3 0 128 0C106.7 0 85.3 0 64 0C42.7 0 21.3 0 10.7 0L0 0Z" fill="#83b860"></path><path d="M0 28L10.7 28.7C21.3 29.3 42.7 30.7 64 33.2C85.3 35.7 106.7 39.3 128 39.8C149.3 40.3 170.7 37.7 191.8 37.8C213 38 234 41 255.2 40.5C276.3 40 297.7 36 319 32.5C340.3 29 361.7 26 383 28C404.3 30 425.7 37 447 37.5C468.3 38 489.7 32 511 28.7C532.3 25.3 553.7 24.7 574.8 26.2C596 27.7 617 31.3 638.2 31.3C659.3 31.3 680.7 27.7 702 25.8C723.3 24 744.7 24 766 24.2C787.3 24.3 808.7 24.7 830 27.8C851.3 31 872.7 37 894 37.2C915.3 37.3 936.7 31.7 957.8 31.7C979 31.7 1000 37.3 1021.2 38.7C1042.3 40 1063.7 37 1085 33.7C1106.3 30.3 1127.7 26.7 1149 26C1170.3 25.3 1191.7 27.7 1202.3 28.8L1213 30L1213 0L1202.3 0C1191.7 0 1170.3 0 1149 0C1127.7 0 1106.3 0 1085 0C1063.7 0 1042.3 0 1021.2 0C1000 0 979 0 957.8 0C936.7 0 915.3 0 894 0C872.7 0 851.3 0 830 0C808.7 0 787.3 0 766 0C744.7 0 723.3 0 702 0C680.7 0 659.3 0 638.2 0C617 0 596 0 574.8 0C553.7 0 532.3 0 511 0C489.7 0 468.3 0 447 0C425.7 0 404.3 0 383 0C361.7 0 340.3 0 319 0C297.7 0 276.3 0 255.2 0C234 0 213 0 191.8 0C170.7 0 149.3 0 128 0C106.7 0 85.3 0 64 0C42.7 0 21.3 0 10.7 0L0 0Z" fill="#5e8642"></path><path d="M0 28L10.7 26.3C21.3 24.7 42.7 21.3 64 21.3C85.3 21.3 106.7 24.7 128 25.5C149.3 26.3 170.7 24.7 191.8 23.5C213 22.3 234 21.7 255.2 21.7C276.3 21.7 297.7 22.3 319 22.7C340.3 23 361.7 23 383 22.2C404.3 21.3 425.7 19.7 447 17.5C468.3 15.3 489.7 12.7 511 12.7C532.3 12.7 553.7 15.3 574.8 18C596 20.7 617 23.3 638.2 24.2C659.3 25 680.7 24 702 23.8C723.3 23.7 744.7 24.3 766 22.2C787.3 20 808.7 15 830 13.7C851.3 12.3 872.7 14.7 894 17.7C915.3 20.7 936.7 24.3 957.8 24.2C979 24 1000 20 1021.2 17.3C1042.3 14.7 1063.7 13.3 1085 14.7C1106.3 16 1127.7 20 1149 22.7C1170.3 25.3 1191.7 26.7 1202.3 27.3L1213 28L1213 0L1202.3 0C1191.7 0 1170.3 0 1149 0C1127.7 0 1106.3 0 1085 0C1063.7 0 1042.3 0 1021.2 0C1000 0 979 0 957.8 0C936.7 0 915.3 0 894 0C872.7 0 851.3 0 830 0C808.7 0 787.3 0 766 0C744.7 0 723.3 0 702 0C680.7 0 659.3 0 638.2 0C617 0 596 0 574.8 0C553.7 0 532.3 0 511 0C489.7 0 468.3 0 447 0C425.7 0 404.3 0 383 0C361.7 0 340.3 0 319 0C297.7 0 276.3 0 255.2 0C234 0 213 0 191.8 0C170.7 0 149.3 0 128 0C106.7 0 85.3 0 64 0C42.7 0 21.3 0 10.7 0L0 0Z" fill="#3b5827"></path></svg>